<?xml version="1.0" encoding="utf-8"?>
<!-- Generator: Adobe Illustrator 22.0.1, SVG Export Plug-In . SVG Version: 6.00 Build 0)  -->
<svg version="1.1" id="d8951433-2714-4e95-856e-ed301a2a6756"
	 xmlns="http://www.w3.org/2000/svg" xmlns:xlink="http://www.w3.org/1999/xlink" x="0px" y="0px" viewBox="0 0 1022.8 761.1"
	 style="enable-background:new 0 0 1022.8 761.1;" xml:space="preserve">
<style type="text/css">
	.st0{opacity:0.1;fill:#B2A0BB;enable-background:new    ;}
	.st1{opacity:3.000000e-02;enable-background:new    ;}
	.st2{fill:url(#SVGID_1_);}
	.st3{fill:#B2A0BB;}
	.st4{opacity:0.2;fill:#F5F5F5;enable-background:new    ;}
	.st5{opacity:0.25;enable-background:new    ;}
	.st6{opacity:0.7;}
	.st7{fill:url(#SVGID_2_);}
	.st8{opacity:0.5;}
	.st9{fill:url(#SVGID_3_);}
	.st10{fill:url(#SVGID_4_);}
	.st11{opacity:0.3;}
	.st12{fill:url(#SVGID_5_);}
	.st13{fill:url(#SVGID_6_);}
	.st14{fill:#A8A8A8;}
	.st15{opacity:0.2;enable-background:new    ;}
	.st16{fill:url(#SVGID_7_);}
	.st17{fill:#D6D8E1;}
	.st18{fill:#E6E8ED;}
	.st19{fill:#5A5773;}
	.st20{fill:url(#SVGID_8_);}
	.st21{fill:#4A4347;}
	.st22{opacity:0.1;enable-background:new    ;}
	.st23{fill:#A1616A;}
	.st24{fill:#605D82;}
</style>
<title>drone_race</title>
<path class="st0" d="M174.8,110.9c-5.5,5.7-7.6,13.8-10,21.4c-19,61-65.8,110.1-119.1,145.1c-22.6,14.9-50.1,34.8-45.1,61.4
	c2.7,14.3,14.3,24.8,23,36.5c18.3,25,24,57,15.4,86.7c-9.9,33.2-37.4,64.2-28.9,97.8c5.3,20.7,23.1,35.4,40.3,48
	c26.8,19.7,54.4,38.2,82.9,55.4c19.1,11.5,39.4,22.8,61.7,24.2c19.6,1.3,38.8-5.1,57.4-11.5c16.3-5.5,32.9-11.3,46.1-22.4
	c8.6-7.2,15.4-16.6,24.9-22.5c22.4-13.9,51.1-5.1,76.7,0.8c61,13.9,124.8,8.9,182.8-14.4c88.3-35.7,155.6-110.8,242-151.1
	c37.1-17.3,77.5-28.1,111.9-50.4c18.9-12.3,35.6-27.8,49.2-45.9c26-34.5,40.1-78.6,36-121.7s-26.8-84.6-62.5-109
	c-38.2-26-86.6-30.9-130.1-46.6C784.5,76.7,744.5,48.9,700,31.6C627.2,3.3,543.4,5,471.7,36.1c-48.4,21.1-97.5,70.3-151.5,74
	C281.8,112.7,204.8,79.5,174.8,110.9z"/>
<ellipse class="st1" cx="133.5" cy="386.1" rx="40.8" ry="6.1"/>
<linearGradient id="SVGID_1_" gradientUnits="userSpaceOnUse" x1="616.0551" y1="218.1611" x2="616.0551" y2="335.81" gradientTransform="matrix(1 0 0 -1 -88.62 692.54)">
	<stop  offset="0" style="stop-color:#808080;stop-opacity:0.25"/>
	<stop  offset="0.54" style="stop-color:#808080;stop-opacity:0.12"/>
	<stop  offset="1" style="stop-color:#808080;stop-opacity:0.1"/>
</linearGradient>
<path class="st2" d="M654.4,360.7c-7.1-0.1-14.2,0.4-21.3,1.3l0,0c0-2.8-2.3-5.1-5.1-5.1s-5.1,2.3-5.1,5.1l0,0
	c-7.1-0.9-14.2-1.4-21.3-1.3c-15.8,0-28.5,1.8-28.5,3.9s12.8,3.9,28.6,3.9c7.1,0.1,14.2-0.4,21.3-1.3l0,0c0,0.6,0.1,1.3,0.3,1.9
	c-1.6,1.1-2.1,3.2-1,4.9c0.2,0.3,0.4,0.6,0.7,0.8c-2.5,0.9-4.6,2.8-5.6,5.3c-1.4-1.1-3.1-1.7-4.9-1.8l-53.1-2.4
	c-3.8-5.4-10-8.5-16.6-8.6h-33.4c-6.6,0-12.9,3.3-16.7,8.7l-50.4,2.3c-1.7,0.1-3.2,0.6-4.6,1.6c-1-2.2-2.7-3.9-4.9-4.8
	c1-0.7,1.6-1.8,1.5-2.9c0-1.5-0.9-2.8-2.3-3.3c0.1-0.5,0.2-1,0.2-1.5l0,0c7.1,0.9,14.2,1.4,21.3,1.3c15.8,0,28.5-1.8,28.5-3.9
	s-12.8-3.9-28.5-3.9c-7.1-0.1-14.2,0.4-21.3,1.3l0,0c0-2.9-2.2-5.2-5.1-5.3l0,0c-2.9,0-5.1,2.4-5.1,5.3l0,0
	c-7.1-0.9-14.2-1.4-21.3-1.3c-15.8,0-28.5,1.8-28.5,3.9s12.8,3.9,28.5,3.9c7.1,0.1,14.2-0.4,21.3-1.3l0,0c0,0.6,0.1,1.3,0.3,1.9
	c-1.6,1.1-2.1,3.3-1,4.9c0.2,0.3,0.5,0.6,0.8,0.9c-3.7,1.5-6.1,5-6.1,9v6.5c-0.1,5.3,4.1,9.6,9.4,9.7c0,0,0,0,0,0h3.8
	c3,0,5.8-1.5,7.5-3.9c1.5,1.5,3.6,2.3,5.7,2.4l49.4,1.4c1.6,2.5,3.7,4.7,6.1,6.4c-4.7,4.9-23.2,26.9-20.2,65.5c0,0,3,5.7,10.7,0
	c0,0-4.9-43,22.5-60.8c0.9,2.8,3.5,4.7,6.4,4.7h3.5c-7.1,2.9-11.7,9.9-11.6,17.5c-0.3,10.1,7.6,18.6,17.7,18.9
	c10.1,0.3,18.6-7.6,18.9-17.7c0-0.4,0-0.8,0-1.2c0.1-7.7-4.5-14.6-11.6-17.5h3.5c2.9,0,5.5-1.9,6.4-4.7
	c27.4,17.7,22.5,60.8,22.5,60.8c7.7,5.7,10.7,0,10.7,0c3.4-44.2-21.3-66.6-21.3-66.6h-0.5c1.8-1.5,3.4-3.3,4.6-5.3l52-1.5
	c2.3-0.1,4.4-1,6-2.6c1.7,2.6,4.6,4.1,7.7,4.1h3.8c5.3-0.1,9.5-4.4,9.4-9.7c0,0,0,0,0,0v-6.5c0-3.8-2.2-7.2-5.6-8.8
	c1.7-1,2.2-3.1,1.3-4.8c-0.4-0.7-1.1-1.3-1.9-1.5c0.1-0.5,0.2-1,0.2-1.5l0,0c7.1,1,14.2,1.4,21.3,1.4c15.8,0,28.5-1.8,28.5-3.9
	S670.2,360.7,654.4,360.7z"/>
<circle class="st3" cx="526" cy="432.4" r="17.8"/>
<circle class="st3" cx="526" cy="432.4" r="12"/>
<circle class="st4" cx="526" cy="432.4" r="12"/>
<circle class="st3" cx="526" cy="432.4" r="7.8"/>
<circle class="st5" cx="526" cy="432.4" r="7.8"/>
<path class="st3" d="M498.3,405.9c0,0-24,21.1-20.7,62.8c0,0,2.9,5.4,10.3,0c0,0-6.2-52.9,35.1-62.8H498.3z"/>
<path class="st3" d="M553.7,405.9c0,0,24,21.1,20.7,62.8c0,0-2.9,5.4-10.3,0c0,0,6.2-52.9-35.1-62.8H553.7z"/>
<path class="st3" d="M505.2,370H544c9.4,0,17,7.6,17,17v6.4c0,9.4-7.6,17-17,17h-38.8c-9.4,0-17-7.6-17-17V387
	C488.2,377.6,495.8,370,505.2,370z"/>
<path class="st3" d="M500.1,401.1l-56.7-1.6c-4.6-0.1-8.3-3.9-8.3-8.5v-2.2c0-4.6,3.6-8.3,8.1-8.5l56.7-2.5c4.7-0.2,8.7,3.4,8.9,8.1
	c0,0.1,0,0.3,0,0.4v6.3c0,4.7-3.8,8.5-8.5,8.5C500.3,401.2,500.2,401.2,500.1,401.1z"/>
<path class="st3" d="M551.5,401.1l56.7-1.6c4.6-0.1,8.3-3.9,8.3-8.5v-2.2c0-4.6-3.6-8.3-8.1-8.5l-56.7-2.5c-4.7-0.2-8.7,3.4-8.9,8.1
	c0,0.1,0,0.3,0,0.4v6.3c0,4.7,3.8,8.5,8.5,8.5C551.3,401.2,551.4,401.2,551.5,401.1z"/>
<path class="st4" d="M500.1,401.1l-56.7-1.6c-4.6-0.1-8.3-3.9-8.3-8.5v-2.2c0-4.6,3.6-8.3,8.1-8.5l56.7-2.5c4.7-0.2,8.7,3.4,8.9,8.1
	c0,0.1,0,0.3,0,0.4v6.3c0,4.7-3.8,8.5-8.5,8.5C500.3,401.2,500.2,401.2,500.1,401.1z"/>
<path class="st4" d="M551.5,401.1l56.7-1.6c4.6-0.1,8.3-3.9,8.3-8.5v-2.2c0-4.6-3.6-8.3-8.1-8.5l-56.7-2.5c-4.7-0.2-8.7,3.4-8.9,8.1
	c0,0.1,0,0.3,0,0.4v6.3c0,4.7,3.8,8.5,8.5,8.5C551.3,401.2,551.4,401.2,551.5,401.1z"/>
<path class="st3" d="M427,376.6h3.5c5.1,0,9.2,4.1,9.2,9.2v6c0,5.1-4.1,9.2-9.2,9.2H427c-5.1,0-9.2-4.1-9.2-9.2v-6
	C417.8,380.7,421.9,376.6,427,376.6z"/>
<path class="st3" d="M621.5,376.6h3.5c5.1,0,9.2,4.1,9.2,9.2v6c0,5.1-4.1,9.2-9.2,9.2h-3.5c-5.1,0-9.2-4.1-9.2-9.2v-6
	C612.3,380.7,616.4,376.6,621.5,376.6z"/>
<path class="st3" d="M425.1,371.2h7.7c1.5,0,2.8,1.2,2.8,2.8v1c0,1.5-1.2,2.8-2.8,2.8h-7.7c-1.5,0-2.8-1.2-2.8-2.8v-1
	C422.3,372.5,423.6,371.2,425.1,371.2z"/>
<path class="st3" d="M427.7,360.1h1.6c2.3,0,4.2,1.9,4.2,4.2v6.5c0,2.3-1.9,4.2-4.2,4.2h-1.6c-2.3,0-4.2-1.9-4.2-4.2v-6.5
	C423.5,362,425.4,360.1,427.7,360.1z"/>
<ellipse class="st3" cx="402.9" cy="367.5" rx="27.7" ry="3.7"/>
<ellipse class="st3" cx="454.1" cy="367.5" rx="27.7" ry="3.7"/>
<path class="st3" d="M620.1,371.2h7.7c1.5,0,2.8,1.2,2.8,2.8v1c0,1.5-1.2,2.8-2.8,2.8h-7.7c-1.5,0-2.8-1.2-2.8-2.8v-1
	C617.3,372.5,618.5,371.2,620.1,371.2z"/>
<path class="st3" d="M622.7,360.1h1.6c2.3,0,4.2,1.9,4.2,4.2v6.5c0,2.3-1.9,4.2-4.2,4.2h-1.6c-2.3,0-4.2-1.9-4.2-4.2v-6.5
	C618.5,362,620.4,360.1,622.7,360.1z"/>
<ellipse class="st3" cx="597.9" cy="367.5" rx="27.7" ry="3.7"/>
<ellipse class="st3" cx="649.1" cy="367.5" rx="27.7" ry="3.7"/>
<ellipse class="st4" cx="402.9" cy="367.5" rx="27.7" ry="3.7"/>
<ellipse class="st4" cx="454.1" cy="367.5" rx="27.7" ry="3.7"/>
<ellipse class="st4" cx="597.9" cy="367.5" rx="27.7" ry="3.7"/>
<ellipse class="st4" cx="649.1" cy="367.5" rx="27.7" ry="3.7"/>
<path class="st3" d="M515,402.6H537c3.1,0,5.6,2.5,5.6,5.6v2.1c0,3.1-2.5,5.6-5.6,5.6H515c-3.1,0-5.6-2.5-5.6-5.6v-2.1
	C509.5,405.1,512,402.6,515,402.6z"/>
<path class="st4" d="M515,402.6H537c3.1,0,5.6,2.5,5.6,5.6v2.1c0,3.1-2.5,5.6-5.6,5.6H515c-3.1,0-5.6-2.5-5.6-5.6v-2.1
	C509.5,405.1,512,402.6,515,402.6z"/>
<g class="st6">
	
		<linearGradient id="SVGID_2_" gradientUnits="userSpaceOnUse" x1="404.275" y1="186.9656" x2="404.275" y2="265.3856" gradientTransform="matrix(1 0 0 -1 -88.62 692.54)">
		<stop  offset="0" style="stop-color:#808080;stop-opacity:0.25"/>
		<stop  offset="0.54" style="stop-color:#808080;stop-opacity:0.12"/>
		<stop  offset="1" style="stop-color:#808080;stop-opacity:0.1"/>
	</linearGradient>
	<path class="st7" d="M400.3,429.7c-4.7,0-9.5,0.2-14.2,0.9l0,0c0.1-1.9-1.3-3.5-3.2-3.6c-1.9-0.1-3.5,1.3-3.6,3.2
		c0,0.1,0,0.2,0,0.4l0,0c-4.7-0.6-9.4-0.9-14.2-0.9c-10.5,0-19,1.2-19,2.6s8.5,2.6,19,2.6c4.7,0,9.5-0.2,14.2-0.9l0,0
		c0,0.4,0.1,0.8,0.2,1.2c-1.1,0.7-1.4,2.2-0.7,3.3c0.1,0.2,0.3,0.4,0.5,0.5c-1.7,0.6-3,1.9-3.7,3.5c-0.9-0.7-2.1-1.2-3.3-1.2
		l-35.4-1.6c-2.6-3.6-6.7-5.7-11.1-5.7h-22.3c-4.4,0-8.6,2.2-11.2,5.8l-33.6,1.5c-1.1,0.1-2.2,0.4-3.1,1.1c-0.7-1.4-1.8-2.6-3.3-3.2
		c0.6-0.5,1-1.2,1-2c0-1-0.6-1.9-1.6-2.2c0.1-0.3,0.1-0.7,0.1-1l0,0c4.7,0.6,9.4,0.9,14.2,0.9c10.5,0,19-1.2,19-2.6s-8.5-2.6-19-2.6
		c-4.7,0-9.5,0.2-14.2,0.9l0,0c0-1.9-1.5-3.5-3.4-3.5c0,0,0,0,0,0l0,0c-1.9,0-3.4,1.6-3.4,3.5c0,0,0,0,0,0l0,0
		c-4.7-0.6-9.4-0.9-14.2-0.9c-10.5,0-19,1.2-19,2.6s8.5,2.6,19,2.6c4.7,0,9.5-0.2,14.2-0.9l0,0c0,0.4,0.1,0.8,0.2,1.2
		c-1.1,0.7-1.4,2.2-0.7,3.3c0.1,0.2,0.3,0.4,0.6,0.6c-2.5,1-4.1,3.4-4.1,6v4.4c-0.1,3.5,2.8,6.4,6.3,6.5c0,0,0,0,0,0h2.5
		c2,0,3.8-1,5-2.6c1,1,2.4,1.6,3.8,1.6l32.9,1c1,1.7,2.4,3.2,4.1,4.3c-3.1,3.3-15.5,17.9-13.5,43.6c0,0,2,3.8,7.1,0
		c0,0-3.3-28.7,15-40.5c0.6,1.9,2.3,3.1,4.3,3.1h2.3c-4.7,2-7.8,6.6-7.7,11.7c-0.2,6.7,5.1,12.4,11.9,12.6
		c6.7,0.2,12.4-5.1,12.6-11.9c0-0.2,0-0.5,0-0.7c0-5.1-3-9.6-7.6-11.6h2.3c2,0,3.7-1.3,4.3-3.1c18.3,11.8,15,40.5,15,40.5
		c5.1,3.8,7.1,0,7.1,0c2.3-29.5-14.2-44.3-14.2-44.3h-0.3c1.2-1,2.3-2.2,3.1-3.5l34.7-1c1.5,0,3-0.7,4-1.8c1.1,1.7,3.1,2.8,5.1,2.8
		h2.5c3.5,0,6.3-2.9,6.3-6.4c0,0,0,0,0,0v-4.3c0-2.5-1.4-4.8-3.7-5.9c1.1-0.6,1.5-2.1,0.8-3.2c-0.3-0.5-0.7-0.8-1.2-1
		c0.1-0.3,0.1-0.7,0.1-1l0,0c4.7,0.6,9.4,0.9,14.2,0.9c10.5,0,19-1.2,19-2.6S410.8,429.7,400.3,429.7z"/>
	<circle class="st3" cx="314.7" cy="477.5" r="11.8"/>
	<circle class="st3" cx="314.7" cy="477.5" r="8"/>
	<circle class="st4" cx="314.7" cy="477.5" r="8"/>
	<circle class="st3" cx="314.7" cy="477.5" r="5.2"/>
	<circle class="st5" cx="314.7" cy="477.5" r="5.2"/>
	<path class="st3" d="M296.3,459.9c0,0-16,14-13.8,41.8c0,0,1.9,3.6,6.9,0c0,0-4.1-35.2,23.4-41.8H296.3z"/>
	<path class="st3" d="M333.1,459.9c0,0,16,14,13.8,41.8c0,0-1.9,3.6-6.9,0c0,0,4.1-35.2-23.4-41.8H333.1z"/>
	<path class="st3" d="M300.8,436h25.8c6.2,0,11.3,5.1,11.3,11.3v4.2c0,6.2-5.1,11.3-11.3,11.3h-25.8c-6.2,0-11.3-5.1-11.3-11.3v-4.2
		C289.5,441,294.6,436,300.8,436z"/>
	<path class="st3" d="M297.5,456.7l-37.8-1.1c-3.1-0.1-5.5-2.6-5.5-5.7v-1.4c0-3,2.4-5.5,5.4-5.7l37.8-1.7c3.1-0.1,5.8,2.3,5.9,5.4
		c0,0.1,0,0.2,0,0.2v4.2c0,3.1-2.5,5.7-5.7,5.7C297.6,456.7,297.5,456.7,297.5,456.7z"/>
	<path class="st3" d="M331.7,456.7l37.8-1.1c3.1-0.1,5.5-2.6,5.5-5.7v-1.4c0-3-2.4-5.5-5.4-5.7l-37.8-1.7c-3.1-0.1-5.8,2.3-5.9,5.4
		c0,0.1,0,0.2,0,0.2v4.2c0,3.1,2.6,5.7,5.7,5.6C331.6,456.7,331.6,456.7,331.7,456.7z"/>
	<path class="st4" d="M297.5,456.7l-37.8-1.1c-3.1-0.1-5.5-2.6-5.5-5.7v-1.4c0-3,2.4-5.5,5.4-5.7l37.8-1.7c3.1-0.1,5.8,2.3,5.9,5.4
		c0,0.1,0,0.2,0,0.2v4.2c0,3.1-2.5,5.7-5.7,5.7C297.6,456.7,297.5,456.7,297.5,456.7z"/>
	<path class="st4" d="M331.7,456.7l37.8-1.1c3.1-0.1,5.5-2.6,5.5-5.7v-1.4c0-3-2.4-5.5-5.4-5.7l-37.8-1.7c-3.1-0.1-5.8,2.3-5.9,5.4
		c0,0.1,0,0.2,0,0.2v4.2c0,3.1,2.6,5.7,5.7,5.6C331.6,456.7,331.6,456.7,331.7,456.7z"/>
	<path class="st3" d="M248.8,440.4h2.3c3.4,0,6.1,2.7,6.1,6.1v4c0,3.4-2.7,6.1-6.1,6.1h-2.3c-3.4,0-6.1-2.7-6.1-6.1v-4
		C242.6,443.1,245.4,440.4,248.8,440.4z"/>
	<path class="st3" d="M378.4,440.4h2.3c3.4,0,6.1,2.7,6.1,6.1v4c0,3.4-2.7,6.1-6.1,6.1h-2.3c-3.4,0-6.1-2.7-6.1-6.1v-4
		C372.2,443.1,375,440.4,378.4,440.4z"/>
	<path class="st3" d="M247.5,436.8h5.1c1,0,1.9,0.8,1.9,1.9v0.7c0,1-0.8,1.9-1.9,1.9h-5.1c-1,0-1.9-0.8-1.9-1.9v-0.7
		C245.6,437.6,246.5,436.8,247.5,436.8z"/>
	<path class="st3" d="M249.2,429.4h1c1.5,0,2.8,1.2,2.8,2.8v4.4c0,1.5-1.2,2.8-2.8,2.8h-1c-1.5,0-2.8-1.2-2.8-2.8v-4.4
		C246.5,430.6,247.7,429.4,249.2,429.4z"/>
	<ellipse class="st3" cx="232.7" cy="434.3" rx="18.4" ry="2.5"/>
	<ellipse class="st3" cx="266.8" cy="434.3" rx="18.4" ry="2.5"/>
	<path class="st3" d="M377.4,436.8h5.1c1,0,1.9,0.8,1.9,1.9v0.7c0,1-0.8,1.9-1.9,1.9h-5.1c-1,0-1.9-0.8-1.9-1.9v-0.7
		C375.5,437.6,376.4,436.8,377.4,436.8z"/>
	<path class="st3" d="M379.1,429.4h1c1.5,0,2.8,1.2,2.8,2.8v4.4c0,1.5-1.2,2.8-2.8,2.8h-1c-1.5,0-2.8-1.2-2.8-2.8v-4.4
		C376.4,430.6,377.6,429.4,379.1,429.4z"/>
	<ellipse class="st3" cx="362.6" cy="434.3" rx="18.4" ry="2.5"/>
	<ellipse class="st3" cx="396.7" cy="434.3" rx="18.4" ry="2.5"/>
	<ellipse class="st4" cx="232.7" cy="434.3" rx="18.4" ry="2.5"/>
	<ellipse class="st4" cx="266.8" cy="434.3" rx="18.4" ry="2.5"/>
	<ellipse class="st4" cx="362.6" cy="434.3" rx="18.4" ry="2.5"/>
	<ellipse class="st4" cx="396.7" cy="434.3" rx="18.4" ry="2.5"/>
	<path class="st3" d="M307.4,457.7H322c2,0,3.7,1.7,3.7,3.7v1.4c0,2-1.7,3.7-3.7,3.7h-14.6c-2,0-3.7-1.7-3.7-3.7v-1.4
		C303.7,459.4,305.4,457.7,307.4,457.7z"/>
	<path class="st4" d="M307.4,457.7H322c2,0,3.7,1.7,3.7,3.7v1.4c0,2-1.7,3.7-3.7,3.7h-14.6c-2,0-3.7-1.7-3.7-3.7v-1.4
		C303.7,459.4,305.4,457.7,307.4,457.7z"/>
</g>
<g class="st8">
	
		<linearGradient id="SVGID_3_" gradientUnits="userSpaceOnUse" x1="222.355" y1="329.18" x2="222.355" y2="382.88" gradientTransform="matrix(1 0 0 -1 -88.62 692.54)">
		<stop  offset="0" style="stop-color:#808080;stop-opacity:0.25"/>
		<stop  offset="0.54" style="stop-color:#808080;stop-opacity:0.12"/>
		<stop  offset="1" style="stop-color:#808080;stop-opacity:0.1"/>
	</linearGradient>
	<path class="st9" d="M191.6,311.5c-3.3,0-6.5,0.2-9.7,0.6l0,0c0-1.3-1-2.3-2.3-2.3c-1.3,0-2.3,1-2.3,2.3l0,0l0,0
		c-3.2-0.4-6.5-0.6-9.7-0.6c-7.2,0-13,0.8-13,1.8s5.8,1.8,13,1.8c3.3,0,6.5-0.2,9.7-0.6l0,0c0,0.3,0.1,0.6,0.1,0.8
		c-0.7,0.5-1,1.5-0.5,2.2c0.1,0.1,0.2,0.3,0.3,0.4c-1.2,0.4-2.1,1.3-2.6,2.4c-0.6-0.5-1.4-0.8-2.2-0.8l-24.2-1.1
		c-1.8-2.4-4.6-3.9-7.6-3.9h-15.3c-3,0-5.9,1.5-7.6,4l-23,1.1c-0.8,0-1.5,0.3-2.1,0.7c-0.4-1-1.2-1.8-2.2-2.2
		c0.4-0.3,0.7-0.8,0.7-1.3c0-0.7-0.4-1.3-1.1-1.5c0.1-0.2,0.1-0.5,0.1-0.7l0,0c3.2,0.4,6.5,0.6,9.7,0.6c7.2,0,13-0.8,13-1.8
		s-5.8-1.8-13-1.8c-3.3,0-6.5,0.2-9.7,0.6l0,0c0-1.3-1-2.4-2.3-2.4l0,0c-1.3,0-2.3,1.1-2.3,2.4l0,0c-3.2-0.4-6.5-0.6-9.7-0.6
		c-7.2,0-13,0.8-13,1.8s5.8,1.8,13,1.8c3.3,0,6.5-0.2,9.7-0.6l0,0c0,0.3,0.1,0.6,0.1,0.8c-0.7,0.5-1,1.5-0.5,2.2
		c0.1,0.2,0.2,0.3,0.4,0.4c-1.7,0.7-2.8,2.3-2.8,4.1v3c0,2.4,1.9,4.4,4.3,4.4c0,0,0,0,0,0h1.7c1.4,0,2.6-0.7,3.4-1.8
		c0.7,0.7,1.6,1.1,2.6,1.1l22.6,0.6c0.7,1.2,1.7,2.2,2.8,2.9c-2.2,2.2-10.6,12.2-9.2,29.9c0,0,1.4,2.6,4.9,0c0,0-2.2-19.6,10.3-27.7
		c0.4,1.3,1.6,2.1,2.9,2.1h1.6c-3.2,1.3-5.3,4.5-5.3,8c-0.2,4.6,3.5,8.5,8.1,8.6c4.6,0.2,8.5-3.5,8.6-8.1c0-0.2,0-0.4,0-0.6
		c0-3.5-2.1-6.7-5.3-8h1.6c1.3,0,2.5-0.9,2.9-2.1c12.5,8.1,10.3,27.7,10.3,27.7c3.5,2.6,4.9,0,4.9,0c1.6-20.2-9.7-30.4-9.7-30.4
		h-0.2c0.8-0.7,1.5-1.5,2.1-2.4l23.7-0.7c1,0,2-0.5,2.7-1.2c0.8,1.2,2.1,1.9,3.5,1.9h1.8c2.4,0,4.3-2,4.3-4.4c0,0,0,0,0,0v-3
		c0-1.7-1-3.3-2.5-4c0.8-0.4,1-1.4,0.6-2.2c-0.2-0.3-0.5-0.6-0.9-0.7c0.1-0.2,0.1-0.5,0.1-0.7l0,0c3.2,0.4,6.5,0.6,9.7,0.6
		c7.2,0,13-0.8,13-1.8S198.8,311.5,191.6,311.5z"/>
	<circle class="st3" cx="133.1" cy="344.2" r="8.1"/>
	
		<ellipse transform="matrix(7.088894e-02 -0.9975 0.9975 7.088894e-02 -219.6766 452.4974)" class="st3" cx="133.1" cy="344.2" rx="5.5" ry="5.5"/>
	
		<ellipse transform="matrix(7.088894e-02 -0.9975 0.9975 7.088894e-02 -219.6766 452.4974)" class="st4" cx="133.1" cy="344.2" rx="5.5" ry="5.5"/>
	<circle class="st3" cx="133.1" cy="344.2" r="3.6"/>
	<circle class="st5" cx="133.1" cy="344.2" r="3.6"/>
	<path class="st3" d="M120.4,332.1c0,0-10.9,9.6-9.4,28.6c0,0,1.3,2.5,4.7,0c0,0-2.8-24.1,16-28.6H120.4z"/>
	<path class="st3" d="M145.7,332.1c0,0,10.9,9.6,9.4,28.6c0,0-1.3,2.5-4.7,0c0,0,2.8-24.1-16-28.6H145.7z"/>
	<path class="st3" d="M123.6,315.7h17.7c4.3,0,7.7,3.5,7.7,7.7v2.9c0,4.3-3.5,7.7-7.7,7.7h-17.7c-4.3,0-7.7-3.5-7.7-7.7v-2.9
		C115.8,319.2,119.3,315.7,123.6,315.7z"/>
	<path class="st3" d="M121.2,329.9l-25.9-0.7c-2.1-0.1-3.8-1.8-3.8-3.9v-1c0-2.1,1.6-3.8,3.7-3.9l25.9-1.2c2.1-0.1,4,1.6,4,3.7
		c0,0.1,0,0.1,0,0.2v2.9c0,2.1-1.7,3.9-3.9,3.9C121.3,329.9,121.3,329.9,121.2,329.9z"/>
	<path class="st3" d="M144.7,329.9l25.9-0.7c2.1-0.1,3.8-1.8,3.8-3.9v-1c0-2.1-1.6-3.8-3.7-3.9l-25.9-1.2c-2.1-0.1-4,1.6-4,3.7
		c0,0.1,0,0.1,0,0.2v2.9c0,2.1,1.7,3.9,3.9,3.9C144.6,329.9,144.6,329.9,144.7,329.9z"/>
	<path class="st4" d="M121.2,329.9l-25.9-0.7c-2.1-0.1-3.8-1.8-3.8-3.9v-1c0-2.1,1.6-3.8,3.7-3.9l25.9-1.2c2.1-0.1,4,1.6,4,3.7
		c0,0.1,0,0.1,0,0.2v2.9c0,2.1-1.7,3.9-3.9,3.9C121.3,329.9,121.3,329.9,121.2,329.9z"/>
	<path class="st4" d="M144.7,329.9l25.9-0.7c2.1-0.1,3.8-1.8,3.8-3.9v-1c0-2.1-1.6-3.8-3.7-3.9l-25.9-1.2c-2.1-0.1-4,1.6-4,3.7
		c0,0.1,0,0.1,0,0.2v2.9c0,2.1,1.7,3.9,3.9,3.9C144.6,329.9,144.6,329.9,144.7,329.9z"/>
	<path class="st3" d="M87.9,318.7h1.6c2.3,0,4.2,1.9,4.2,4.2v2.7c0,2.3-1.9,4.2-4.2,4.2h-1.6c-2.3,0-4.2-1.9-4.2-4.2v-2.7
		C83.7,320.6,85.6,318.7,87.9,318.7z"/>
	<path class="st3" d="M176.6,318.7h1.6c2.3,0,4.2,1.9,4.2,4.2v2.7c0,2.3-1.9,4.2-4.2,4.2h-1.6c-2.3,0-4.2-1.9-4.2-4.2v-2.7
		C172.4,320.6,174.3,318.7,176.6,318.7z"/>
	<path class="st3" d="M87,316.3h3.5c0.7,0,1.3,0.6,1.3,1.3v0.5c0,0.7-0.6,1.3-1.3,1.3H87c-0.7,0-1.3-0.6-1.3-1.3v-0.5
		C85.8,316.8,86.3,316.3,87,316.3z"/>
	<path class="st3" d="M88.2,311.2h0.7c1,0,1.9,0.9,1.9,1.9v3c0,1-0.9,1.9-1.9,1.9h-0.7c-1,0-1.9-0.9-1.9-1.9v-3
		C86.3,312.1,87.2,311.2,88.2,311.2z"/>
	<ellipse class="st3" cx="76.9" cy="314.6" rx="12.6" ry="1.7"/>
	<ellipse class="st3" cx="100.3" cy="314.6" rx="12.6" ry="1.7"/>
	<path class="st3" d="M176,316.3h3.5c0.7,0,1.3,0.6,1.3,1.3v0.5c0,0.7-0.6,1.3-1.3,1.3H176c-0.7,0-1.3-0.6-1.3-1.3v-0.5
		C174.7,316.8,175.3,316.3,176,316.3z"/>
	<path class="st3" d="M177.2,311.2h0.7c1,0,1.9,0.9,1.9,1.9v3c0,1-0.9,1.9-1.9,1.9h-0.7c-1,0-1.9-0.9-1.9-1.9v-3
		C175.3,312.1,176.1,311.2,177.2,311.2z"/>
	<ellipse class="st3" cx="165.8" cy="314.6" rx="12.6" ry="1.7"/>
	<ellipse class="st3" cx="189.2" cy="314.6" rx="12.6" ry="1.7"/>
	<ellipse class="st4" cx="76.9" cy="314.6" rx="12.6" ry="1.7"/>
	<ellipse class="st4" cx="100.3" cy="314.6" rx="12.6" ry="1.7"/>
	<ellipse class="st4" cx="165.8" cy="314.6" rx="12.6" ry="1.7"/>
	<ellipse class="st4" cx="189.2" cy="314.6" rx="12.6" ry="1.7"/>
	<path class="st3" d="M128.1,330.6h10c1.4,0,2.5,1.1,2.5,2.5v0.9c0,1.4-1.1,2.5-2.5,2.5h-10c-1.4,0-2.5-1.1-2.5-2.5v-0.9
		C125.5,331.7,126.7,330.6,128.1,330.6z"/>
	<path class="st4" d="M128.1,330.6h10c1.4,0,2.5,1.1,2.5,2.5v0.9c0,1.4-1.1,2.5-2.5,2.5h-10c-1.4,0-2.5-1.1-2.5-2.5v-0.9
		C125.5,331.7,126.7,330.6,128.1,330.6z"/>
</g>
<g class="st8">
	
		<linearGradient id="SVGID_4_" gradientUnits="userSpaceOnUse" x1="533.785" y1="415.58" x2="533.785" y2="445.97" gradientTransform="matrix(1 0 0 -1 -88.62 692.54)">
		<stop  offset="0" style="stop-color:#808080;stop-opacity:0.25"/>
		<stop  offset="0.54" style="stop-color:#808080;stop-opacity:0.12"/>
		<stop  offset="1" style="stop-color:#808080;stop-opacity:0.1"/>
	</linearGradient>
	<path class="st10" d="M477.9,247.5c-1.8,0-3.7,0.1-5.5,0.3l0,0c0-0.7-0.6-1.3-1.3-1.3s-1.3,0.6-1.3,1.3l0,0l0,0
		c-1.8-0.2-3.7-0.4-5.5-0.3c-4.1,0-7.4,0.5-7.4,1s3.3,1,7.4,1c1.8,0,3.7-0.1,5.5-0.3l0,0c0,0.2,0,0.3,0.1,0.5
		c-0.4,0.3-0.5,0.8-0.3,1.3c0.1,0.1,0.1,0.2,0.2,0.2c-0.7,0.2-1.2,0.7-1.5,1.4c-0.4-0.3-0.8-0.4-1.3-0.5l-13.7-0.5
		c-1-1.4-2.6-2.2-4.3-2.2h-8.6c-1.7,0-3.3,0.8-4.3,2.2l-13,0.6c-0.4,0-0.8,0.2-1.2,0.4c-0.3-0.6-0.7-1-1.3-1.2
		c0.3-0.2,0.4-0.5,0.4-0.8c0-0.4-0.2-0.7-0.6-0.9c0-0.1,0.1-0.3,0.1-0.4l0,0c1.8,0.2,3.7,0.4,5.5,0.3c4.1,0,7.4-0.5,7.4-1
		s-3.3-1-7.4-1c-1.8,0-3.7,0.1-5.5,0.3l0,0c0-0.7-0.6-1.3-1.3-1.4c0,0,0,0,0,0l0,0c-0.7,0-1.3,0.6-1.3,1.4c0,0,0,0,0,0l0,0
		c-1.8-0.3-3.7-0.4-5.5-0.5c-4.1,0-7.4,0.5-7.4,1s3.3,1,7.4,1c1.8,0,3.7-0.1,5.5-0.3l0,0c0,0.2,0,0.3,0.1,0.5
		c-0.4,0.3-0.5,0.8-0.3,1.3c0.1,0.1,0.1,0.2,0.2,0.2c-1,0.4-1.6,1.3-1.6,2.3v1.7c0,1.4,1.1,2.5,2.4,2.5h1c0.8,0,1.5-0.4,2-1
		c0.4,0.4,0.9,0.6,1.5,0.6l12.8,0.4c0.4,0.7,0.9,1.2,1.6,1.7c-1.2,1.3-6,6.9-5.2,16.9c0,0,0.8,1.5,2.8,0c0,0-1.3-11.1,5.8-15.7
		c0.2,0.7,0.9,1.2,1.7,1.2h0.9c-1.8,0.8-3,2.5-3,4.5c0,2.6,2.1,4.7,4.7,4.7c2.6,0,4.7-2.1,4.7-4.7c0-2-1.2-3.8-3-4.5h0.9
		c0.8,0,1.4-0.5,1.7-1.2c7.1,4.6,5.8,15.7,5.8,15.7c2,1.5,2.8,0,2.8,0c0.9-11.4-5.5-17.2-5.5-17.2h-0.2c0.5-0.4,0.9-0.8,1.2-1.4
		l13.4-0.4c0.6,0,1.1-0.3,1.5-0.7c0.4,0.7,1.2,1.1,2,1.1h1c1.4,0,2.4-1.1,2.4-2.5v-1.7c0-1-0.6-1.9-1.4-2.3c0.4-0.3,0.6-0.8,0.3-1.2
		c-0.1-0.2-0.3-0.3-0.5-0.4c0-0.1,0.1-0.3,0.1-0.4l0,0c1.8,0.2,3.7,0.4,5.5,0.3c4.1,0,7.4-0.5,7.4-1S482,247.5,477.9,247.5z"/>
	<circle class="st3" cx="444.8" cy="266.1" r="4.6"/>
	<circle class="st3" cx="444.8" cy="266.1" r="3.1"/>
	<circle class="st4" cx="444.8" cy="266.1" r="3.1"/>
	<circle class="st3" cx="444.8" cy="266.1" r="2"/>
	<circle class="st5" cx="444.8" cy="266.1" r="2"/>
	<path class="st3" d="M437.6,259.3c0,0-6.2,5.4-5.3,16.2c0,0,0.8,1.4,2.7,0c0,0-1.6-13.6,9.1-16.2H437.6z"/>
	<path class="st3" d="M451.9,259.3c0,0,6.2,5.4,5.3,16.2c0,0-0.8,1.4-2.7,0c0,0,1.6-13.6-9.1-16.2H451.9z"/>
	<path class="st3" d="M439.4,250h10c2.4,0,4.4,2,4.4,4.4v1.6c0,2.4-2,4.4-4.4,4.4h-10c-2.4,0-4.4-2-4.4-4.4v-1.6
		C435,252,437,250,439.4,250z"/>
	<path class="st3" d="M438.1,258l-14.6-0.4c-1.2,0-2.1-1-2.1-2.2v-0.6c0-1.2,0.9-2.1,2.1-2.2l14.6-0.7c1.2,0,2.2,0.9,2.3,2.1
		c0,0,0,0.1,0,0.1v1.6C440.4,257,439.4,258,438.1,258C438.1,258,438.1,258,438.1,258z"/>
	<path class="st3" d="M451.4,258l14.6-0.4c1.2,0,2.1-1,2.1-2.2v-0.6c0-1.2-0.9-2.1-2.1-2.2l-14.7-0.6c-1.2,0-2.2,0.9-2.3,2.1
		c0,0,0,0.1,0,0.1v1.6C449.1,257.1,450.1,258,451.4,258C451.3,258,451.4,258,451.4,258z"/>
	<path class="st4" d="M438.1,258l-14.6-0.4c-1.2,0-2.1-1-2.1-2.2v-0.6c0-1.2,0.9-2.1,2.1-2.2l14.6-0.7c1.2,0,2.2,0.9,2.3,2.1
		c0,0,0,0.1,0,0.1v1.6C440.4,257,439.4,258,438.1,258C438.1,258,438.1,258,438.1,258z"/>
	<path class="st4" d="M451.4,258l14.6-0.4c1.2,0,2.1-1,2.1-2.2v-0.6c0-1.2-0.9-2.1-2.1-2.2l-14.7-0.6c-1.2,0-2.2,0.9-2.3,2.1
		c0,0,0,0.1,0,0.1v1.6C449.1,257.1,450.1,258,451.4,258C451.3,258,451.4,258,451.4,258z"/>
	<path class="st3" d="M419.2,251.7h0.9c1.3,0,2.4,1.1,2.4,2.4v1.5c0,1.3-1.1,2.4-2.4,2.4h-0.9c-1.3,0-2.4-1.1-2.4-2.4v-1.5
		C416.8,252.8,417.9,251.7,419.2,251.7z"/>
	<path class="st3" d="M469.5,251.7h0.9c1.3,0,2.4,1.1,2.4,2.4v1.5c0,1.3-1.1,2.4-2.4,2.4h-0.9c-1.3,0-2.4-1.1-2.4-2.4v-1.5
		C467.1,252.8,468.1,251.7,469.5,251.7z"/>
	<path class="st3" d="M418.7,250.3h2c0.4,0,0.7,0.3,0.7,0.7v0.3c0,0.4-0.3,0.7-0.7,0.7h-2c-0.4,0-0.7-0.3-0.7-0.7V251
		C418,250.6,418.3,250.3,418.7,250.3z"/>
	<path class="st3" d="M419.4,247.4h0.4c0.6,0,1.1,0.5,1.1,1.1v1.7c0,0.6-0.5,1.1-1.1,1.1h-0.4c-0.6,0-1.1-0.5-1.1-1.1v-1.7
		C418.3,247.9,418.8,247.4,419.4,247.4z"/>
	<ellipse class="st3" cx="413" cy="249.4" rx="7.1" ry="1"/>
	<ellipse class="st3" cx="426.2" cy="249.4" rx="7.1" ry="1"/>
	<path class="st3" d="M469.1,250.3h2c0.4,0,0.7,0.3,0.7,0.7v0.3c0,0.4-0.3,0.7-0.7,0.7h-2c-0.4,0-0.7-0.3-0.7-0.7V251
		C468.4,250.6,468.7,250.3,469.1,250.3z"/>
	<path class="st3" d="M469.8,247.4h0.4c0.6,0,1.1,0.5,1.1,1.1v1.7c0,0.6-0.5,1.1-1.1,1.1h-0.4c-0.6,0-1.1-0.5-1.1-1.1v-1.7
		C468.7,247.9,469.2,247.4,469.8,247.4z"/>
	<ellipse class="st3" cx="463.3" cy="249.4" rx="7.1" ry="1"/>
	<ellipse class="st3" cx="476.6" cy="249.4" rx="7.1" ry="1"/>
	<ellipse class="st4" cx="413" cy="249.4" rx="7.1" ry="1"/>
	<ellipse class="st4" cx="426.2" cy="249.4" rx="7.1" ry="1"/>
	<ellipse class="st4" cx="463.3" cy="249.4" rx="7.1" ry="1"/>
	<ellipse class="st4" cx="476.6" cy="249.4" rx="7.1" ry="1"/>
	<path class="st3" d="M442,258.4h5.6c0.8,0,1.4,0.6,1.4,1.4v0.5c0,0.8-0.6,1.4-1.4,1.4H442c-0.8,0-1.4-0.6-1.4-1.4v-0.5
		C440.5,259.1,441.2,258.4,442,258.4z"/>
	<path class="st4" d="M442,258.4h5.6c0.8,0,1.4,0.6,1.4,1.4v0.5c0,0.8-0.6,1.4-1.4,1.4H442c-0.8,0-1.4-0.6-1.4-1.4v-0.5
		C440.5,259.1,441.2,258.4,442,258.4z"/>
</g>
<g class="st11">
	
		<linearGradient id="SVGID_5_" gradientUnits="userSpaceOnUse" x1="398.57" y1="462.33" x2="398.57" y2="486.55" gradientTransform="matrix(1 0 0 -1 -88.62 692.54)">
		<stop  offset="0" style="stop-color:#808080;stop-opacity:0.25"/>
		<stop  offset="0.54" style="stop-color:#808080;stop-opacity:0.12"/>
		<stop  offset="1" style="stop-color:#808080;stop-opacity:0.1"/>
	</linearGradient>
	<path class="st12" d="M336.1,206.8c-1.5,0-2.9,0.1-4.4,0.3l0,0c0-0.6-0.5-1.1-1.1-1.1c-0.6,0-1,0.5-1,1.1l0,0
		c-1.5-0.2-2.9-0.3-4.4-0.3c-3.2,0-5.9,0.4-5.9,0.8s2.6,0.8,5.9,0.8c1.5,0,2.9-0.1,4.4-0.3l0,0c0,0.1,0,0.3,0.1,0.4
		c-0.3,0.2-0.4,0.7-0.2,1c0,0.1,0.1,0.1,0.1,0.2c-0.5,0.2-0.9,0.6-1.1,1.1c-0.3-0.2-0.6-0.4-1-0.4l-10.9-0.5
		c-0.8-1.1-2.1-1.8-3.4-1.8h-6.9c-1.4,0-2.7,0.7-3.4,1.8l-10.4,0.5c-0.3,0-0.7,0.1-0.9,0.3c-0.2-0.4-0.6-0.8-1-1
		c0.2-0.1,0.3-0.4,0.3-0.6c0-0.3-0.2-0.6-0.5-0.7c0-0.1,0-0.2,0-0.3l0,0c1.5,0.2,2.9,0.3,4.4,0.3c3.2,0,5.9-0.4,5.9-0.8
		s-2.6-0.8-5.9-0.8c-1.5,0-2.9,0.1-4.4,0.3l0,0c0-0.6-0.5-1.1-1-1.1l0,0c-0.6,0-1.1,0.5-1,1.1l0,0c-1.5-0.2-2.9-0.3-4.4-0.3
		c-3.2,0-5.9,0.4-5.9,0.8s2.6,0.8,5.9,0.8c1.5,0,2.9-0.1,4.4-0.3l0,0c0,0.1,0,0.3,0.1,0.4c-0.3,0.2-0.4,0.7-0.2,1
		c0,0.1,0.1,0.1,0.2,0.2c-0.8,0.3-1.3,1-1.2,1.9v1.3c0,1.1,0.9,2,1.9,2h0.8c0.6,0,1.2-0.3,1.5-0.8c0.3,0.3,0.7,0.5,1.2,0.5l10.2,0.3
		c0.3,0.5,0.8,1,1.3,1.3c-1,1-4.8,5.5-4.2,13.5c0,0,0.6,1.2,2.2,0c0,0-1-8.9,4.6-12.5c0.2,0.6,0.7,1,1.3,1h0.7
		c-1.5,0.6-2.4,2-2.4,3.6c0,2.1,1.7,3.8,3.8,3.8c2.1,0,3.8-1.7,3.8-3.8c0-1.6-0.9-3-2.4-3.6h0.7c0.6,0,1.1-0.4,1.3-1
		c5.6,3.6,4.6,12.5,4.6,12.5c1.6,1.2,2.2,0,2.2,0c0.7-9.1-4.4-13.7-4.4-13.7h-0.1c0.4-0.3,0.7-0.7,1-1.1l10.7-0.3
		c0.5,0,0.9-0.2,1.2-0.5c0.4,0.5,1,0.8,1.6,0.9h0.8c1.1,0,1.9-0.9,1.9-2v-1.4c0-0.8-0.4-1.5-1.1-1.8c0.3-0.2,0.5-0.6,0.3-1
		c-0.1-0.2-0.2-0.3-0.4-0.3c0-0.1,0-0.2,0-0.3l0,0c1.5,0.2,2.9,0.3,4.4,0.3c3.2,0,5.9-0.4,5.9-0.8S339.3,206.8,336.1,206.8z"/>
	<circle class="st3" cx="309.6" cy="221.6" r="3.7"/>
	<circle class="st3" cx="309.6" cy="221.6" r="2.5"/>
	<circle class="st4" cx="309.6" cy="221.6" r="2.5"/>
	<circle class="st3" cx="309.6" cy="221.6" r="1.6"/>
	<circle class="st5" cx="309.6" cy="221.6" r="1.6"/>
	<path class="st3" d="M303.9,216.1c0,0-4.9,4.3-4.2,12.9c0,0,0.6,1.1,2.1,0c0,0-1.3-10.9,7.2-12.9H303.9z"/>
	<path class="st3" d="M315.3,216.1c0,0,4.9,4.3,4.2,12.9c0,0-0.6,1.1-2.1,0c0,0,1.3-10.9-7.2-12.9H315.3z"/>
	<path class="st3" d="M304.1,208.7h10.5c1.2,0,2.2,1,2.2,2.2v3.8c0,1.2-1,2.2-2.2,2.2h-10.5c-1.2,0-2.2-1-2.2-2.2v-3.8
		C301.8,209.7,302.8,208.7,304.1,208.7z"/>
	<path class="st3" d="M304.3,215.1l-11.7-0.3c-0.9,0-1.7-0.8-1.7-1.8v-0.5c0-0.9,0.7-1.7,1.7-1.8l11.7-0.5c1,0,1.8,0.7,1.8,1.7
		c0,0,0,0.1,0,0.1v1.3C306.1,214.3,305.3,215.1,304.3,215.1C304.3,215.1,304.3,215.1,304.3,215.1z"/>
	<path class="st3" d="M314.9,215.1l11.7-0.3c0.9,0,1.7-0.8,1.7-1.8v-0.5c0-0.9-0.7-1.7-1.7-1.8l-11.7-0.5c-1,0-1.8,0.7-1.8,1.7
		c0,0,0,0.1,0,0.1v1.3C313.1,214.3,313.8,215.1,314.9,215.1C314.8,215.1,314.8,215.1,314.9,215.1z"/>
	<path class="st4" d="M304.3,215.1l-11.7-0.3c-0.9,0-1.7-0.8-1.7-1.8v-0.5c0-0.9,0.7-1.7,1.7-1.8l11.7-0.5c1,0,1.8,0.7,1.8,1.7
		c0,0,0,0.1,0,0.1v1.3C306.1,214.3,305.3,215.1,304.3,215.1C304.3,215.1,304.3,215.1,304.3,215.1z"/>
	<path class="st4" d="M314.9,215.1l11.7-0.3c0.9,0,1.7-0.8,1.7-1.8v-0.5c0-0.9-0.7-1.7-1.7-1.8l-11.7-0.5c-1,0-1.8,0.7-1.8,1.7
		c0,0,0,0.1,0,0.1v1.3C313.1,214.3,313.8,215.1,314.9,215.1C314.8,215.1,314.8,215.1,314.9,215.1z"/>
	<path class="st3" d="M288.6,210.1h2.1c0.7,0,1.2,0.5,1.2,1.2v2.6c0,0.7-0.5,1.2-1.2,1.2h-2.1c-0.7,0-1.2-0.5-1.2-1.2v-2.6
		C287.4,210.6,287.9,210.1,288.6,210.1z"/>
	<path class="st3" d="M328.6,210.1h2.1c0.7,0,1.2,0.5,1.2,1.2v2.6c0,0.7-0.5,1.2-1.2,1.2h-2.1c-0.7,0-1.2-0.5-1.2-1.2v-2.6
		C327.4,210.6,327.9,210.1,328.6,210.1z"/>
	<path class="st3" d="M288.6,209h2c0.2,0,0.4,0.2,0.4,0.4v0.6c0,0.2-0.2,0.4-0.4,0.4h-2c-0.2,0-0.4-0.2-0.4-0.4v-0.6
		C288.3,209.1,288.4,209,288.6,209z"/>
	<path class="st3" d="M289.1,206.7h0.9c0.3,0,0.5,0.2,0.5,0.6v2c0,0.3-0.2,0.6-0.5,0.6h-0.9c-0.3,0-0.5-0.2-0.5-0.6v-2
		C288.5,206.9,288.8,206.7,289.1,206.7z"/>
	<ellipse class="st3" cx="284.3" cy="208.2" rx="5.7" ry="0.8"/>
	<ellipse class="st3" cx="294.8" cy="208.2" rx="5.7" ry="0.8"/>
	<path class="st3" d="M328.8,209h2c0.2,0,0.4,0.2,0.4,0.4v0.6c0,0.2-0.2,0.4-0.4,0.4h-2c-0.2,0-0.4-0.2-0.4-0.4v-0.6
		C328.4,209.1,328.6,209,328.8,209z"/>
	<path class="st3" d="M329.2,206.7h0.9c0.3,0,0.5,0.2,0.5,0.6v2c0,0.3-0.2,0.6-0.5,0.6h-0.9c-0.3,0-0.5-0.2-0.5-0.6v-2
		C328.7,206.9,328.9,206.7,329.2,206.7z"/>
	<ellipse class="st3" cx="324.4" cy="208.2" rx="5.7" ry="0.8"/>
	<ellipse class="st3" cx="335" cy="208.2" rx="5.7" ry="0.8"/>
	<ellipse class="st4" cx="284.3" cy="208.2" rx="5.7" ry="0.8"/>
	<ellipse class="st4" cx="294.8" cy="208.2" rx="5.7" ry="0.8"/>
	<ellipse class="st4" cx="324.4" cy="208.2" rx="5.7" ry="0.8"/>
	<ellipse class="st4" cx="335" cy="208.2" rx="5.7" ry="0.8"/>
	<path class="st3" d="M307,215.4h5.3c0.4,0,0.7,0.3,0.7,0.7v1.3c0,0.4-0.3,0.7-0.7,0.7H307c-0.4,0-0.7-0.3-0.7-0.7v-1.3
		C306.2,215.8,306.5,215.4,307,215.4z"/>
	<path class="st4" d="M307,215.4h5.3c0.4,0,0.7,0.3,0.7,0.7v1.3c0,0.4-0.3,0.7-0.7,0.7H307c-0.4,0-0.7-0.3-0.7-0.7v-1.3
		C306.2,215.8,306.5,215.4,307,215.4z"/>
</g>
<g class="st11">
	
		<linearGradient id="SVGID_6_" gradientUnits="userSpaceOnUse" x1="367.03" y1="324.0811" x2="367.03" y2="366.29" gradientTransform="matrix(1 0 0 -1 -88.62 692.54)">
		<stop  offset="0" style="stop-color:#808080;stop-opacity:0.25"/>
		<stop  offset="0.54" style="stop-color:#808080;stop-opacity:0.12"/>
		<stop  offset="1" style="stop-color:#808080;stop-opacity:0.1"/>
	</linearGradient>
	<path class="st13" d="M323.9,327.7c-2.6,0-5.1,0.1-7.6,0.5l0,0c0-1-0.8-1.8-1.8-1.8c-1,0-1.8,0.8-1.8,1.8l0,0
		c-2.5-0.3-5.1-0.5-7.6-0.5c-5.6,0-10.2,0.6-10.2,1.4s4.6,1.4,10.2,1.4c2.6,0,5.1-0.1,7.6-0.5l0,0c0,0.2,0,0.4,0.1,0.7
		c-0.6,0.4-0.7,1.2-0.3,1.7c0.1,0.1,0.1,0.2,0.2,0.3c-0.9,0.3-1.6,1-2,1.9c-0.5-0.4-1.1-0.6-1.8-0.7l-19-0.9c-1.4-1.9-3.6-3.1-6-3.1
		h-12c-2.4,0-4.6,1.2-6,3.1l-18.1,0.8c-0.6,0-1.2,0.2-1.6,0.6c-0.3-0.8-1-1.4-1.8-1.7c0.3-0.2,0.6-0.6,0.5-1c0-0.5-0.3-1-0.8-1.2
		c0.1-0.2,0.1-0.4,0.1-0.5l0,0c2.5,0.3,5.1,0.5,7.6,0.5c5.6,0,10.2-0.6,10.2-1.4s-4.6-1.4-10.2-1.4c-2.6,0-5.1,0.1-7.6,0.5l0,0
		c0-1-0.8-1.9-1.8-1.9l0,0c-1,0-1.8,0.9-1.8,1.9l0,0c-2.5-0.3-5.1-0.5-7.6-0.5c-5.6,0-10.2,0.6-10.2,1.4s4.6,1.5,10.3,1.5
		c2.6,0,5.1-0.1,7.6-0.5l0,0c0,0.2,0,0.4,0.1,0.7c-0.6,0.4-0.7,1.2-0.4,1.8c0.1,0.1,0.2,0.2,0.3,0.3c-1.3,0.5-2.2,1.8-2.2,3.2v2.3
		c0,1.9,1.5,3.4,3.4,3.5c0,0,0,0,0,0h1.3c1.1,0,2.1-0.5,2.7-1.4c0.5,0.5,1.3,0.8,2,0.9l17.7,0.5c0.6,0.9,1.3,1.7,2.2,2.3
		c-1.7,1.8-8.3,9.6-7.2,23.5c0,0,1.1,2,3.8,0c0,0-1.8-15.4,8.1-21.8c0.3,1,1.3,1.7,2.3,1.7h1.3c-2.5,1.1-4.2,3.5-4.2,6.3
		c-0.1,3.6,2.7,6.7,6.3,6.8c3.6,0.1,6.7-2.7,6.8-6.3c0-0.2,0-0.3,0-0.5c0-2.7-1.6-5.2-4.2-6.3h1.3c1.1,0,2-0.7,2.3-1.7
		c9.8,6.4,8.1,21.8,8.1,21.8c2.8,2,3.8,0,3.8,0c1.2-15.9-7.6-23.9-7.6-23.9h-0.2c0.7-0.5,1.2-1.2,1.7-1.9l18.6-0.5
		c0.8,0,1.6-0.4,2.1-1c0.6,0.9,1.7,1.5,2.8,1.5h1.3c1.9,0,3.4-1.6,3.4-3.5c0,0,0,0,0,0V336c0-1.4-0.8-2.6-2-3.2
		c0.6-0.3,0.8-1.1,0.5-1.7c-0.2-0.3-0.4-0.5-0.7-0.6c0.1-0.2,0.1-0.4,0.1-0.5l0,0c2.5,0.3,5.1,0.5,7.6,0.5c5.6,0,10.2-0.6,10.2-1.4
		S329.6,327.7,323.9,327.7z"/>
	<circle class="st3" cx="277.9" cy="353.4" r="6.4"/>
	<circle class="st3" cx="277.9" cy="353.4" r="4.3"/>
	<circle class="st4" cx="277.9" cy="353.4" r="4.3"/>
	<circle class="st3" cx="277.9" cy="353.4" r="2.8"/>
	<circle class="st5" cx="277.9" cy="353.4" r="2.8"/>
	<path class="st3" d="M268,343.9c0,0-8.6,7.5-7.4,22.5c0,0,1,1.9,3.7,0c0,0-2.2-19,12.6-22.5H268z"/>
	<path class="st3" d="M287.8,343.9c0,0,8.6,7.5,7.4,22.5c0,0-1,1.9-3.7,0c0,0,2.2-19-12.6-22.5H287.8z"/>
	<path class="st3" d="M270.4,331.1h13.9c3.4,0,6.1,2.7,6.1,6.1v2.3c0,3.4-2.7,6.1-6.1,6.1h-13.9c-3.4,0-6.1-2.7-6.1-6.1v-2.3
		C264.4,333.8,267.1,331.1,270.4,331.1z"/>
	<path class="st3" d="M268.6,342.2l-20.3-0.6c-1.7,0-3-1.3-3-3v-0.8c0-1.6,1.3-3,2.9-3l20.3-0.9c1.7-0.1,3.1,1.2,3.2,2.8
		c0,0.1,0,0.1,0,0.2v2.3c0,1.7-1.3,3-3,3C268.7,342.2,268.7,342.2,268.6,342.2z"/>
	<path class="st3" d="M287,342.2l20.3-0.6c1.7,0,3-1.3,3-3v-0.8c0-1.6-1.3-3-2.9-3l-20.3-0.9c-1.7-0.1-3.1,1.2-3.2,2.8
		c0,0.1,0,0.1,0,0.2v2.3c0,1.7,1.3,3,3,3C287,342.2,287,342.2,287,342.2z"/>
	<path class="st4" d="M268.6,342.2l-20.3-0.6c-1.7,0-3-1.3-3-3v-0.8c0-1.6,1.3-3,2.9-3l20.3-0.9c1.7-0.1,3.1,1.2,3.2,2.8
		c0,0.1,0,0.1,0,0.2v2.3c0,1.7-1.3,3-3,3C268.7,342.2,268.7,342.2,268.6,342.2z"/>
	<path class="st4" d="M287,342.2l20.3-0.6c1.7,0,3-1.3,3-3v-0.8c0-1.6-1.3-3-2.9-3l-20.3-0.9c-1.7-0.1-3.1,1.2-3.2,2.8
		c0,0.1,0,0.1,0,0.2v2.3c0,1.7,1.3,3,3,3C287,342.2,287,342.2,287,342.2z"/>
	<path class="st3" d="M242.4,333.4h1.2c1.8,0,3.3,1.5,3.3,3.3v2.1c0,1.8-1.5,3.3-3.3,3.3h-1.2c-1.8,0-3.3-1.5-3.3-3.3v-2.1
		C239.1,334.9,240.6,333.4,242.4,333.4z"/>
	<path class="st3" d="M312.2,333.4h1.3c1.8,0,3.3,1.5,3.3,3.3v2.1c0,1.8-1.5,3.3-3.3,3.3h-1.3c-1.8,0-3.3-1.5-3.3-3.3v-2.1
		C308.9,334.9,310.3,333.4,312.2,333.4z"/>
	<path class="st3" d="M241.8,331.5h2.7c0.6,0,1,0.4,1,1v0.4c0,0.6-0.4,1-1,1h-2.7c-0.6,0-1-0.4-1-1v-0.4
		C240.8,332,241.2,331.5,241.8,331.5z"/>
	<path class="st3" d="M242.7,327.5h0.6c0.8,0,1.5,0.7,1.5,1.5v2.3c0,0.8-0.7,1.5-1.5,1.5h-0.6c-0.8,0-1.5-0.7-1.5-1.5V329
		C241.2,328.2,241.9,327.5,242.7,327.5z"/>
	<ellipse class="st3" cx="233.8" cy="330.2" rx="9.9" ry="1.3"/>
	<ellipse class="st3" cx="252.2" cy="330.2" rx="9.9" ry="1.3"/>
	<path class="st3" d="M311.6,331.5h2.7c0.6,0,1,0.4,1,1v0.4c0,0.6-0.4,1-1,1h-2.7c-0.6,0-1-0.4-1-1v-0.4
		C310.6,332,311.1,331.5,311.6,331.5z"/>
	<path class="st3" d="M312.6,327.5h0.5c0.8,0,1.5,0.7,1.5,1.5v2.3c0,0.8-0.7,1.5-1.5,1.5h-0.5c-0.8,0-1.5-0.7-1.5-1.5V329
		C311.1,328.2,311.8,327.5,312.6,327.5z"/>
	<ellipse class="st3" cx="303.7" cy="330.2" rx="9.9" ry="1.3"/>
	<ellipse class="st3" cx="322" cy="330.2" rx="9.9" ry="1.3"/>
	<ellipse class="st4" cx="233.8" cy="330.2" rx="9.9" ry="1.3"/>
	<ellipse class="st4" cx="252.2" cy="330.2" rx="9.9" ry="1.3"/>
	<ellipse class="st4" cx="303.7" cy="330.2" rx="9.9" ry="1.3"/>
	<ellipse class="st4" cx="322" cy="330.2" rx="9.9" ry="1.3"/>
	<path class="st3" d="M274,342.8h7.9c1.1,0,2,0.9,2,2v0.8c0,1.1-0.9,2-2,2H274c-1.1,0-2-0.9-2-2v-0.8
		C272,343.7,272.9,342.8,274,342.8z"/>
	<path class="st4" d="M274,342.8h7.9c1.1,0,2,0.9,2,2v0.8c0,1.1-0.9,2-2,2H274c-1.1,0-2-0.9-2-2v-0.8
		C272,343.7,272.9,342.8,274,342.8z"/>
</g>
<ellipse class="st1" cx="538.7" cy="535.4" rx="82.7" ry="12.5"/>
<ellipse class="st0" cx="767.7" cy="724.4" rx="243.3" ry="36.7"/>
<ellipse class="st1" cx="444" cy="302.3" rx="23.1" ry="3.5"/>
<ellipse class="st1" cx="319.7" cy="524.3" rx="59.6" ry="9"/>
<ellipse class="st1" cx="283.6" cy="391.3" rx="34.4" ry="5.2"/>
<ellipse class="st1" cx="310.1" cy="247.1" rx="19.7" ry="3"/>
<path class="st14" d="M188.1,669.8c0,0-39.5-7.9-50-18.4S80.2,622.4,75,635.6s-71,57.9-26.3,65.8s105.2,10.5,118.4,5.3
	S188.1,669.8,188.1,669.8z"/>
<path class="st15" d="M48.7,696.5c44.7,7.9,105.2,10.5,118.4,5.3c10-4,17-23.3,19.7-32.2l1.3,0.3c0,0-7.9,31.6-21,36.8
	s-73.7,2.6-118.4-5.3c-12.9-2.3-16.6-7.6-15.2-14.4C34.6,691.4,39.1,694.8,48.7,696.5z"/>
<path class="st14" d="M849.6,627.3c0,0,29.1-0.9,37.9-7.2s44.8-13.7,47-3.7c2.2,10,43.8,49.9,10.9,50.1s-76.4-5.1-85.2-10.5
	S849.6,627.3,849.6,627.3z"/>
<path class="st15" d="M946,663.1c-32.9,0.3-76.4-5.1-85.2-10.5c-6.7-4.1-9.3-18.7-10.2-25.4h-1c0,0,1.8,23.5,10.6,28.8
	s52.3,10.7,85.2,10.5c9.5-0.1,12.8-3.5,12.6-8.5C956.7,661.2,953,663.1,946,663.1z"/>
<linearGradient id="SVGID_7_" gradientUnits="userSpaceOnUse" x1="3116.4299" y1="601.415" x2="3358.2488" y2="601.415" gradientTransform="matrix(-1 0 0 -1 3763.3799 692.54)">
	<stop  offset="0" style="stop-color:#808080;stop-opacity:0.25"/>
	<stop  offset="0.54" style="stop-color:#808080;stop-opacity:0.12"/>
	<stop  offset="1" style="stop-color:#808080;stop-opacity:0.1"/>
</linearGradient>
<path class="st16" d="M411.6,95.7c-2.8-4.6-7.1-8.9-6.4-14.1c7.8,0.9,15.1-1,22.2-4.3s13.7-7.6,20.4-11.8c2.6-1.6,5.2-3.3,7.8-4.8
	c4.1-2.4,8.2-5,12.4-7.3c6-3.3,12.1-6,18.9-6.5c1.2-0.1,2.4-0.1,3.7-0.1c8.3,0.2,16.9,2.4,24.2-1.3l0.5-0.2
	c4.1-2.3,7.2-6.1,10.7-9.3c2.6-2.2,5.3-4.1,8.3-5.8c5.4-3,11.2-5.4,16.7-8.2c1.4-0.7,2.7-1.6,4-2.6l0.9-0.8l0.2-0.2l0.7-0.6l0.4-0.4
	l0.4-0.4l0.3-0.3l0.5-0.5l0.1-0.1l0.9-0.9l0.3-0.3l0.6-0.6l0.4-0.4l1.8-1.9c0.7-0.7,1.5-1.4,2.2-2.2l0,0l0.7-0.6l0.2-0.2l0.6-0.5
	l0.3-0.2l0.6-0.4l0.3-0.2l0.9-0.6c0.3-0.2,0.5-0.3,0.8-0.5l-1.8-4.6l5.4-2.2L647,180l-5.4,2.2l-42.5-103l-0.3,0.3
	c-9.8,9.7-21.9,16.9-35.1,20.9h-0.1c-7.4,2.2-15.7,3.8-21.9,8c-2.2,1.4-4.1,3.3-5.7,5.4c-1.5,2.1-2.5,4.4-4,6.4
	c-0.3,0.4-0.6,0.7-0.9,1.1c-1.8,1.8-3.8,3.4-6,4.8l-1,0.6c-6.4,4.5-13.2,8.7-20.1,12.4c-4,2.1-8.2,3.8-12.5,5.2
	c-3.1,1-6.4,1.7-9.5,2.7c-2.1,0.6-4.2,1.5-6.1,2.5c-5.3,2.8-9.4,7.1-13.2,11.7c-3.4,4.1-6.6,8.4-10.3,12.1c-2.3,2.3-5.8,4.5-8.7,3.1
	c-0.2-0.1-0.4-0.2-0.6-0.3c0.1-0.1,0.2-0.3,0.2-0.5c2.2-4.6-0.5-10.4-4.2-14.1c-0.4-0.4-0.8-0.8-1.2-1.1c-0.4-0.4-1.1-1-1.7-1.5
	c-3.1-2.7-6.5-5.2-8.6-8.7c-1.7-2.9-2.8-6.1-3.3-9.4c-1-4.7-1.7-9.6-4.2-13.6c-1.7-2.6-4.2-4.9-6-7.4c-1.2-1.5-1.9-3.3-2.2-5.1
	c-0.4-3.3,1.1-6.4,1.7-9.7c0.2-0.9,0.2-1.8,0.2-2.7C413.7,100,412.9,97.7,411.6,95.7z"/>
<rect x="602.9" y="-4.5" transform="matrix(0.9245 -0.3811 0.3811 0.9245 10.9565 237.7323)" class="st17" width="5.7" height="191.5"/>
<path class="st18" d="M422.1,126.7c2.5,3.9,3.2,8.7,4.2,13.3c0.5,3.3,1.6,6.4,3.3,9.2c2.1,3.4,5.4,5.9,8.5,8.5
	c0.6,0.5,1.1,1,1.7,1.5s0.8,0.7,1.2,1.1c3.6,3.6,6.3,9.3,4.1,13.8c-0.1,0.1-0.1,0.3-0.2,0.5c0.2,0.1,0.4,0.2,0.5,0.3
	c2.8,1.3,6.2-0.8,8.5-3.1c3.6-3.6,6.8-7.9,10.1-11.9c3.8-4.6,7.8-8.8,13-11.5c1.9-1,3.9-1.8,6-2.4c3.1-1,6.2-1.7,9.3-2.7
	c4.2-1.3,8.3-3.1,12.3-5.1c6.8-3.7,13.4-7.7,19.8-12.2l0.9-0.6c2.1-1.3,4.1-2.9,5.9-4.7c0.3-0.3,0.6-0.7,0.9-1.1
	c1.5-2,2.5-4.3,4-6.3c1.5-2.1,3.4-3.9,5.6-5.3c6.1-4.1,14.2-5.6,21.5-7.8h0.1c13-3.9,24.8-11,34.5-20.5c0.8-0.7,1.4-1.5,1.7-2.5
	c0.3-1.4-0.5-2.8-1.2-4c-0.9-1.5-1.7-2.9-2.5-4.4c-3.7-6.7-7-13.6-9.9-20.7c-0.6-1.6-1.2-3.1-1.8-4.7c-1.5-4-2.9-8.1-4.1-12.2
	c-0.4-1.4-0.8-2.7-1.2-4.1c-0.1-0.3-0.1-0.5-0.2-0.8c-1.7-6.8-3.9-22.3-10.7-17.7c-2,1.4-3.9,3.1-5.6,4.9c-1.3,1.3-2.6,2.7-4,4.1
	c-1.1,1.1-2.3,2.1-3.5,3.1c-1.3,1-2.6,1.8-4,2.5c-5.4,2.8-11.2,5.1-16.5,8.1c-2.9,1.6-5.6,3.5-8.2,5.7c-3.5,3.1-6.5,6.9-10.5,9.1
	l-0.5,0.2c-7.2,3.7-15.6,1.5-23.8,1.3c-1.2,0-2.4,0-3.6,0.1c-6.6,0.5-12.7,3.2-18.5,6.4c-4.1,2.3-8.1,4.9-12.2,7.2
	c-2.6,1.5-5.1,3.1-7.7,4.7c-6.5,4.1-13.2,8.4-20,11.6s-14.2,5.1-21.9,4.2c-0.6,5.1,3.5,9.3,6.3,13.9c1.3,2,2.1,4.2,2.4,6.6
	c0,0.9,0,1.8-0.2,2.6c-0.6,3.2-2,6.3-1.6,9.5c0.3,1.8,1,3.5,2.2,5C418,121.9,420.4,124.1,422.1,126.7z"/>
<path class="st19" d="M554.5,20.7l5.6,13.2l18.3-7.7c-1.7-6.7-3.9-22.3-10.7-17.6C562.7,12,559.4,17,554.5,20.7z"/>
<path class="st19" d="M515.4,46.1l2.4,5.7l21.1-8.9L534,31.3c-2.9,1.6-5.6,3.5-8.2,5.7C522.4,40.1,519.5,43.9,515.4,46.1z"/>
<path class="st19" d="M469,54.1l6.5,15.4l21.1-8.9l-5.5-13c-1.2,0-2.4,0-3.6,0.1C480.9,48.2,474.9,50.9,469,54.1z"/>
<path class="st19" d="M429.1,77.5l4.1,9.8l21.1-8.9L449.1,66C442.6,70.1,435.9,74.5,429.1,77.5z"/>
<rect x="542.5" y="37.5" transform="matrix(0.9217 -0.3878 0.3878 0.9217 24.3761 218.6636)" class="st19" width="22.9" height="22.9"/>
<rect x="500.2" y="55.3" transform="matrix(0.9217 -0.3878 0.3878 0.9217 14.1662 203.657)" class="st19" width="22.9" height="22.9"/>
<rect x="457.9" y="73.1" transform="matrix(0.9217 -0.3878 0.3878 0.9217 3.9531 188.6527)" class="st19" width="22.9" height="22.9"/>
<path class="st19" d="M415.7,104.8l5.3,12.6l21.1-8.9l-8.9-21.1l-19.7,8.3c1.3,2,2.1,4.2,2.4,6.6C415.9,103.1,415.8,104,415.7,104.8
	z"/>
<path class="st19" d="M569,55.1l8.9,21.1l17.8-7.5c-3.7-6.7-7-13.6-9.9-20.7L569,55.1z"/>
<rect x="530.2" y="67.5" transform="matrix(0.9217 -0.3878 0.3878 0.9217 11.7674 216.268)" class="st19" width="22.9" height="22.9"/>
<rect x="487.9" y="85.3" transform="matrix(0.9217 -0.3878 0.3878 0.9217 1.5553 201.2582)" class="st19" width="22.9" height="22.9"/>
<rect x="445.6" y="103.1" transform="matrix(0.9217 -0.3878 0.3878 0.9217 -8.6618 186.2546)" class="st19" width="22.9" height="22.9"/>
<path class="st19" d="M556.7,85.2l6.4,15.1c7.4-2.2,14.4-5.5,20.8-9.6l-6.1-14.4L556.7,85.2z"/>
<path class="st19" d="M514.4,103l8.9,21.1l7.7-3.2c0.3-0.3,0.6-0.7,0.9-1.1c1.5-2,2.5-4.3,4-6.3c1.5-2.1,3.4-3.9,5.6-5.3L535.5,94
	L514.4,103z"/>
<rect x="475.7" y="115.3" transform="matrix(0.9217 -0.3878 0.3878 0.9217 -11.0527 198.8664)" class="st19" width="22.9" height="22.9"/>
<path class="st19" d="M429.8,138.5l8.1,19.3c0.6,0.5,1.1,1,1.7,1.5l20.3-8.5l-8.9-21.1L429.8,138.5z"/>
<path class="st19" d="M426.2,140.1l3.6-1.5l-8.9-21.1l-4.8,2c1.8,2.5,4.2,4.7,5.9,7.3C424.6,130.7,425.2,135.4,426.2,140.1z"/>
<path class="st19" d="M502.2,133l2.2,5.4c6.8-3.7,13.4-7.7,19.8-12.2l-0.9-2.1L502.2,133z"/>
<path class="st19" d="M459.9,150.8l3.9,9.3c3.8-4.6,7.8-8.8,13-11.6c1.9-1,3.9-1.8,6-2.4l-1.8-4.2L459.9,150.8z"/>
<linearGradient id="SVGID_8_" gradientUnits="userSpaceOnUse" x1="2993.3074" y1="-54.51" x2="2993.3074" y2="550.5173" gradientTransform="matrix(-1 0 0 -1 3763.3799 692.54)">
	<stop  offset="0" style="stop-color:#808080;stop-opacity:0.25"/>
	<stop  offset="0.54" style="stop-color:#808080;stop-opacity:0.12"/>
	<stop  offset="1" style="stop-color:#808080;stop-opacity:0.1"/>
</linearGradient>
<path class="st20" d="M631.9,182.9l5.4,58.1c0,0,6.4,12.1,13.8,16c5.1,2.6,15,11,20.7,16l1.3,1.1c-0.5,1.4-0.8,2.3-0.8,2.3
	s19.7,38.7,32.1,44.5s4,54.7,4.4,77.5c0.3,15.9,5.7,24.7,11.7,29.1c-0.2,0.3-0.4,0.6-0.6,1c-8.8,14.6-12.3,46.4-8.6,61
	c0.2,0.7,0.4,1.4,0.8,2c-2.2,12-4.4,31.4,2.2,40.2c9.9,13.1,21.2,66.3,21.2,66.3s7.4,37.3,12.8,43.6c3.9,4.6,3.7,44.8,3.3,66.6
	c-2.9-0.1-5.8-0.3-8.7-0.7c-23.5-3.1-2.6,11.1,6.3,16.7c-4,2.6-11.3,4.5-25,2.7c-18.8-2.5-9.2,6.1,0,12.5c6,4.1,13,6.3,20.2,6.5
	l68,1.3c0.8-6.5,1.1-13.1,0.7-19.7l18,0.3c0,0,2.2-15.6-0.2-25.5l1.2-0.2l-8.9-69.2c0,0-0.5-63.9,1-67.8c4.5-11.7,2-30.3-1-44.2
	c-2.5-11.6-2.8-23.5-0.7-35.2c5.2-29-2.4-51.5-7.5-62.6c-0.2-0.5-0.5-1-0.7-1.5c3.1,0.1,5,0.2,5,0.2c-9.4-6.8,1-69.2,10.4-82.3
	s30.7-5.8,30.7-5.8c2-1.6,3.7-3.4,5.3-5.3h1c7.7,0.2,18.4,0.2,29.6-0.5c21.2-1.5,16.3-16,16.3-16l-8.4-57.2c0,0-21.2-47.9-27.1-33.9
	s10.8,36.3,10.8,36.3s7.4,37.8,0,43.1c-4.7,3.4-12.4,1.2-17.5-0.8c-1.6-0.6-2.9-1.2-3.8-1.7l-1.2-0.6l0,0c-8-4-28.5-11.5-37.2-11.9
	c-10.8-0.5-31.6-7.3-31.6-7.3c-1.7-5.8-6.5-9.2-11.4-11.3l0,0c-0.6-5.1-0.9-10.2-0.8-15.4c0.7-0.4,1.3-0.9,1.8-1.4
	c0.4-0.3,0.7-0.6,0.9-1c1.5-2.2,0.8-5.4,2-7.7c0.2-0.4-3-3.2-2.7-3.5c2-1.8,4.9-2.7,6.6-4.6c0.7-0.6,1.2-1.3,1.6-2.2
	c1.3-3.6,1.4-4.8,1-8.6c-0.3-3.4,0.7-6,0.2-8.8l0,0c1.9-1.7,2.8-3.7,0.7-5.8c-3.7-3.7-14-4.6-19-4.9c-3.9-0.2-7.9,0-11.7-1.1
	c-4.4-1.4-7.9-4.5-11.9-6.7s-9.1-3.6-13-1.3c-3,1.8-5,5.6-8.5,5.8c-2.9,0.2-5.8-2.3-8.5-1.3l0.1,0.3c-0.2,0-0.4,0.1-0.6,0.2
	c3.2,7.6,8.8,13.9,16,18c-2.9,4.1-4.4,9.1-4.4,14.1c0,8.7,4.6,16.8,12,21.3l0,0c0,0,0,0,0,0.1l0,0l0.2,1.6c0.3,4.2,0.2,8.5-0.5,12.7
	l-0.9,1.3c-2.3,1.1-3.7,2-3.7,2c-6.4-2.1-13-3.6-19.7-4.4c-9.9-1-33-15-33-15c-0.4,0-0.8,0.1-1.2,0.3l-0.7-0.7
	c-5.2-5-11.7-8.3-18.8-9.8c0,0-1.2-3.6-4-10.2c-1.9-4.6-13.8-30-13.8-30s-4.9-20.3-4-30.5c1-10.2-15.2-29.5-17.8-27.1
	C626.9,144.6,625,173.2,631.9,182.9z M774.2,504.8l0.3,0.1c0.7,0.4,1.3,2.6,1.9,6l0,0c2.1,12.1,3.7,39.8,4.8,61.7
	c0.2,4.2,0.4,8.1,0.5,11.7c-2.4-11.2-5-23.5-5.2-27.2C776.1,552.5,774.9,524,774.2,504.8z"/>
<path class="st21" d="M772.4,695.7c0,0-0.5,12.9-28.7,9.1s9.6,18.6,9.6,18.6l76,1.4c0,0,4.5-33-6.7-33
	C822.1,691.8,772.4,695.7,772.4,695.7z"/>
<path class="st22" d="M772.4,695.7c0,0-0.5,12.9-28.7,9.1s9.6,18.6,9.6,18.6l76,1.4c0,0,4.5-33-6.7-33
	C822.1,691.8,772.4,695.7,772.4,695.7z"/>
<path class="st19" d="M713.1,489.7c0.4,1.6,1.2,3,2.3,4.2c11.1,12.2,54.5,8.5,58.9,11.1c0.7,0.4,1.3,2.5,1.9,6l0,0
	c2,11.9,3.6,39.3,4.6,60.9c0.8,16.8,1.2,30.1,1.2,30.1l2.4,104.6l28.1-4.4l17.7-2.7l-8.6-68.3c0,0-0.5-63.1,1-66.9
	c4.3-11.6,1.9-30-1-43.7c-2.4-11.4-2.7-23.1-0.7-34.6c5-28.7-2.3-50.9-7.2-61.8c-1.2-2.6-2.5-5.1-4-7.5c0,0-70.2-1-82.7,6.7
	c-2.3,1.6-4.2,3.7-5.5,6.2C713,443.9,709.5,475.3,713.1,489.7z"/>
<path class="st21" d="M754.2,714.8c0,0-0.5,12.9-28.7,9.1c-18.2-2.5-8.9,6,0,12.3c5.8,4.1,12.6,6.4,19.7,6.5l65.9,1.2
	c0,0,4.5-33-6.7-33C803.9,711,754.2,714.8,754.2,714.8z"/>
<path class="st23" d="M852.7,330.1c0,0,4.3,0.3,11,0.5c7.4,0.2,17.9,0.2,28.7-0.5c20.5-1.4,15.8-15.8,15.8-15.8l-8.1-56.4
	c0,0-20.5-47.3-26.3-33.5s10.5,35.8,10.5,35.8s7.2,37.3,0,42.5c-4.5,3.3-12,1.2-17-0.8c-1.7-0.7-3.3-1.4-4.8-2.3L852.7,330.1z"/>
<path class="st23" d="M636.2,187.2l5.3,57.4c0,0,6.2,12,13.4,15.8c4.9,2.6,14.5,10.8,20.1,15.8c2.6,2.3,4.3,3.8,4.3,3.8l14.3-22.9
	c-1-1.4-2.1-2.6-3.3-3.8c-5-4.9-11.3-8.2-18.2-9.6c0,0-1.2-3.6-3.8-10c-1.8-4.5-13.4-29.6-13.4-29.6s-4.8-20.1-3.8-30.1
	c1-10-14.8-29.1-17.2-26.8C631.4,149.5,629.5,177.6,636.2,187.2z"/>
<path class="st23" d="M743.2,285.6c0,0,51.6,7.2,44.9-4.3c-1.8-3.1-2.9-7.7-3.5-12.7c-1.6-13.1,0.2-28.9,0.2-28.9l-38.7,6.7
	c2.2,7.4,2.8,15.3,1.6,22.9C746.9,275,745.4,280.4,743.2,285.6z"/>
<circle class="st23" cx="761.2" cy="234.3" r="24.8"/>
<path class="st22" d="M721.4,429.5c2.3,1.9,5,3.2,7.9,3.8c7.7,1.4,32.5,4.3,42.1-3.4c7.6-6.1,32.3-6.1,42.2-5.9
	c-1.2-2.6-2.5-5.1-4-7.5c0,0-70.2-1-82.7,6.7C724.6,424.9,722.8,427.1,721.4,429.5z"/>
<path class="st22" d="M674.9,276.1c2.6,2.3,4.3,3.8,4.3,3.8l14.3-22.9c-1-1.4-2.1-2.6-3.3-3.8C683.3,254.5,677.2,269.6,674.9,276.1z
	"/>
<path class="st22" d="M852.7,330.1c0,0,4.3,0.3,11,0.5c10.6-12.7,5-25.2,3.6-28.5c-1.7-0.7-3.3-1.4-4.8-2.3L852.7,330.1z"/>
<path class="st22" d="M743.2,285.6c0,0,51.6,7.2,44.9-4.3c-1.8-3.1-2.9-7.7-3.5-12.7c-4.2-1.7-8.7-2.8-13.2-3.1
	c-8.9-2.2-18.3,1.2-23.7,3.8C746.9,275,745.4,280.4,743.2,285.6z"/>
<path class="st24" d="M771.4,266.5c0,0,20.5,1,24.4,14.3c0,0,20.1,6.7,30.6,7.2s38.7,12,39.2,13.9s10,18.6-8.1,33.9
	c0,0-20.5-7.2-29.6,5.7s-19.1,74.6-10,81.2c0,0-36.8-1.9-46.4,5.7s-34.4,4.8-42.1,3.4s-18.2-9.6-18.6-32s7.7-70.7-4.3-76.5
	s-31.1-44-31.1-44s7.7-24.9,16.7-25.8c0,0,22.5,13.9,32,14.8c6.5,0.8,12.9,2.2,19.1,4.3C743.3,272.7,758.1,263.2,771.4,266.5z"/>
<path class="st22" d="M787.7,603.9c0,0-4.1-18-6.9-32c0.8,16.8,1.2,30.1,1.2,30.1l2.4,104.6l28.1-4.4L787.7,603.9z"/>
<path class="st19" d="M716,481.5c0,0-9.6,36.8,0,49.7s20.5,65.5,20.5,65.5s7.2,36.8,12.4,43s2.9,79.3,2.9,79.3l62.1-3.3l-28.2-111.8
	c0,0-9.1-40.1-9.6-47.3s-2.9-69.3-2.9-69.3L716,481.5z"/>
<path class="st22" d="M746.1,222.9c-9.5-3.6-17.2-11-21-20.4c2.6-1,5.4,1.4,8.2,1.2c3.4-0.2,5.3-4,8.2-5.7c3.8-2.3,8.8-1,12.6,1.3
	s7.3,5.3,11.5,6.6c3.6,1.1,7.5,0.9,11.3,1.1c4.8,0.3,14.8,1.1,18.4,4.8c2,2,1.1,4-0.7,5.7c0.5,2.8-0.5,5.4-0.2,8.7
	c0.5,2.9,0.1,5.8-1.1,8.5c-1.4,3.7-3.3,6.7-5.2,10.2c-1.2,2.3-0.5,5.4-2,7.6c-0.8,1-1.8,1.9-3,2.4c-7,3.8-15.3,4.8-23,2.8
	c-2.6-0.7-5.3-1.8-6.7-4.1c-2.3-3.8,0-8.7-0.2-13.2C753,234.1,747.6,228.9,746.1,222.9z"/>
<path class="st21" d="M746.6,222.5c-9.5-3.6-17.2-11-21-20.4c2.6-1,5.4,1.4,8.2,1.2c3.4-0.2,5.3-4,8.2-5.7c3.8-2.3,8.8-1,12.6,1.3
	s7.3,5.3,11.5,6.6c3.6,1.1,7.5,0.9,11.3,1.1c4.8,0.3,14.8,1.1,18.4,4.8c2,2,1.1,4-0.7,5.7c0.5,2.8-0.5,5.4-0.2,8.7
	c0.5,2.9,0.1,5.8-1.1,8.5c-1.4,3.7-3.3,6.7-5.2,10.2c-1.2,2.3-0.5,5.4-2,7.6c-0.8,1-1.8,1.9-3,2.4c-7,3.8-15.3,4.8-23,2.8
	c-2.6-0.7-5.3-1.8-6.7-4.1c-2.3-3.8,0-8.7-0.2-13.2C753.5,233.6,748.1,228.4,746.6,222.5z"/>
<path class="st22" d="M751.6,255.8l-3.5,1.2l-0.2-1.7C748,255.3,747.8,256.2,751.6,255.8z"/>
</svg>
