<?xml version="1.0" encoding="UTF-8" standalone="no"?>
<!DOCTYPE svg PUBLIC "-//W3C//DTD SVG 1.1//EN"
 "http://www.w3.org/Graphics/SVG/1.1/DTD/svg11.dtd">
<!-- Generated by graphviz version 2.40.1 (20161225.0304)
 -->
<!-- Title: Kodiak Pages: 1 -->
<svg width="467pt" height="654pt"
 viewBox="0.00 0.00 467.00 654.27" xmlns="http://www.w3.org/2000/svg" xmlns:xlink="http://www.w3.org/1999/xlink">
<g id="graph0" class="graph" transform="scale(1 1) rotate(0) translate(4 650.2744)">
<title>Kodiak</title>
<polygon fill="#ffffff" stroke="transparent" points="-4,4 -4,-650.2744 463,-650.2744 463,4 -4,4"/>
<g id="clust1" class="cluster">
<title>cluster_kodiak</title>
<polygon fill="none" stroke="#000000" points="8,-8 8,-638.2744 451,-638.2744 451,-8 8,-8"/>
<text text-anchor="middle" x="229.5" y="-623.0744" font-family="Times,serif" font-size="14.00" fill="#000000">Kodiak</text>
</g>
<!-- GitHub -->
<g id="node1" class="node">
<title>GitHub</title>
<ellipse fill="none" stroke="#000000" cx="249" cy="-318.6372" rx="36.7613" ry="36.7613"/>
<ellipse fill="none" stroke="#000000" cx="249" cy="-318.6372" rx="40.7749" ry="40.7749"/>
<text text-anchor="middle" x="249" y="-314.4372" font-family="Times,serif" font-size="14.00" fill="#000000">GitHub</text>
</g>
<!-- HTTP Webhook -->
<g id="node2" class="node">
<title>HTTP Webhook</title>
<ellipse fill="none" stroke="#000000" cx="197" cy="-158" rx="67.748" ry="18"/>
<text text-anchor="middle" x="197" y="-153.8" font-family="Times,serif" font-size="14.00" fill="#000000">HTTP Webhook</text>
</g>
<!-- GitHub&#45;&gt;HTTP Webhook -->
<g id="edge1" class="edge">
<title>GitHub&#45;&gt;HTTP Webhook</title>
<path fill="none" stroke="#000000" d="M236.4123,-279.7514C227.0187,-250.7332 214.4088,-211.7789 206.0087,-185.8294"/>
<polygon fill="#000000" stroke="#000000" points="209.3131,-184.6726 202.9034,-176.2366 202.6533,-186.8285 209.3131,-184.6726"/>
<text text-anchor="middle" x="259.8765" y="-222.8" font-family="Times,serif" font-size="14.00" fill="#000000">HTTP events</text>
</g>
<!-- Redis -->
<g id="node3" class="node">
<title>Redis</title>
<path fill="none" stroke="#000000" d="M81,-48.7273C81,-50.5331 68.8982,-52 54,-52 39.1018,-52 27,-50.5331 27,-48.7273 27,-48.7273 27,-19.2727 27,-19.2727 27,-17.4669 39.1018,-16 54,-16 68.8982,-16 81,-17.4669 81,-19.2727 81,-19.2727 81,-48.7273 81,-48.7273"/>
<path fill="none" stroke="#000000" d="M81,-48.7273C81,-46.9214 68.8982,-45.4545 54,-45.4545 39.1018,-45.4545 27,-46.9214 27,-48.7273"/>
<text text-anchor="middle" x="54" y="-29.8" font-family="Times,serif" font-size="14.00" fill="#000000">Redis</text>
</g>
<!-- HTTP Webhook&#45;&gt;Redis -->
<g id="edge2" class="edge">
<title>HTTP Webhook&#45;&gt;Redis</title>
<path fill="none" stroke="#000000" d="M177.1165,-140.7583C152.3902,-119.3174 110.0293,-82.5848 82.02,-58.297"/>
<polygon fill="#000000" stroke="#000000" points="84.0238,-55.402 74.1757,-51.495 79.4379,-60.6906 84.0238,-55.402"/>
<text text-anchor="middle" x="188.9502" y="-91.8" font-family="Times,serif" font-size="14.00" fill="#000000">write event to queue</text>
</g>
<!-- Repo Queue Worker -->
<g id="node4" class="node">
<title>Repo Queue Worker</title>
<ellipse fill="none" stroke="#000000" cx="329" cy="-452.2744" rx="82.3441" ry="18"/>
<text text-anchor="middle" x="329" y="-448.0744" font-family="Times,serif" font-size="14.00" fill="#000000">Repo Queue Worker</text>
</g>
<!-- Repo Queue Worker&#45;&gt;GitHub -->
<g id="edge4" class="edge">
<title>Repo Queue Worker&#45;&gt;GitHub</title>
<path fill="none" stroke="#000000" d="M318.2108,-434.2515C307.2332,-415.9138 289.8017,-386.795 275.1795,-362.3691"/>
<polygon fill="#000000" stroke="#000000" points="278.076,-360.3934 269.9366,-353.6111 272.07,-363.9889 278.076,-360.3934"/>
</g>
<!-- Repo Queue Worker&#45;&gt;Redis -->
<g id="edge3" class="edge">
<title>Repo Queue Worker&#45;&gt;Redis</title>
<path fill="none" stroke="#000000" d="M334.5,-433.9544C337.25,-423.2227 340,-409.3477 340,-396.7744 340,-396.7744 340,-396.7744 340,-96 340,-70.8586 169.017,-47.5298 91.4601,-38.2411"/>
<polygon fill="#000000" stroke="#000000" points="91.5056,-34.7223 81.164,-37.0249 90.6844,-41.6739 91.5056,-34.7223"/>
<text text-anchor="middle" x="391.4541" y="-229.8" font-family="Times,serif" font-size="14.00" fill="#000000">pull off mergeable</text>
<text text-anchor="middle" x="391.4541" y="-215.8" font-family="Times,serif" font-size="14.00" fill="#000000"> PRs and merge</text>
</g>
<!-- Async Worker -->
<g id="node5" class="node">
<title>Async Worker</title>
<ellipse fill="none" stroke="#000000" cx="157" cy="-452.2744" rx="61.1208" ry="18"/>
<text text-anchor="middle" x="157" y="-448.0744" font-family="Times,serif" font-size="14.00" fill="#000000">Async Worker</text>
</g>
<!-- Async Worker&#45;&gt;GitHub -->
<g id="edge5" class="edge">
<title>Async Worker&#45;&gt;GitHub</title>
<path fill="none" stroke="#000000" d="M169.2169,-434.5284C182.1153,-415.7925 202.9116,-385.5843 220.0382,-360.7065"/>
<polygon fill="#000000" stroke="#000000" points="223.1365,-362.3783 225.9241,-352.1567 217.3707,-358.4089 223.1365,-362.3783"/>
</g>
<!-- Async Worker&#45;&gt;Redis -->
<g id="edge6" class="edge">
<title>Async Worker&#45;&gt;Redis</title>
<path fill="none" stroke="#000000" d="M160.7243,-434.1378C166.6189,-400.2795 174.3628,-326.5002 142,-278 122.2271,-248.3675 94.3809,-267.7876 70.8975,-241 56.4022,-224.4652 54,-216.4889 54,-194.5 54,-194.5 54,-194.5 54,-96 54,-85.0553 54,-73.0239 54,-62.4955"/>
<polygon fill="#000000" stroke="#000000" points="57.5001,-62.1765 54,-52.1766 50.5001,-62.1766 57.5001,-62.1765"/>
<text text-anchor="middle" x="140.0513" y="-229.8" font-family="Times,serif" font-size="14.00" fill="#000000">write any mergeable PRs</text>
<text text-anchor="middle" x="140.0513" y="-215.8" font-family="Times,serif" font-size="14.00" fill="#000000">to per repo queue</text>
</g>
<!-- Event Queue Worker -->
<g id="node6" class="node">
<title>Event Queue Worker</title>
<ellipse fill="none" stroke="#000000" cx="128" cy="-590.2744" rx="84.265" ry="18"/>
<text text-anchor="middle" x="128" y="-586.0744" font-family="Times,serif" font-size="14.00" fill="#000000">Event Queue Worker</text>
</g>
<!-- Event Queue Worker&#45;&gt;Redis -->
<g id="edge7" class="edge">
<title>Event Queue Worker&#45;&gt;Redis</title>
<path fill="none" stroke="#000000" d="M81,-575.2088C57.5,-564.4369 34,-547.1869 34,-521.2744 34,-521.2744 34,-521.2744 34,-377.7744 34,-295.9695 17,-276.305 17,-194.5 17,-194.5 17,-194.5 17,-96 17,-83.0734 23.0041,-70.5003 30.1751,-60.0936"/>
<polygon fill="#000000" stroke="#000000" points="33.1294,-61.9894 36.3669,-51.9013 27.545,-57.7686 33.1294,-61.9894"/>
<text text-anchor="middle" x="84.9053" y="-321.4372" font-family="Times,serif" font-size="14.00" fill="#000000">Left blocking pop </text>
<text text-anchor="middle" x="84.9053" y="-307.4372" font-family="Times,serif" font-size="14.00" fill="#000000">from event queue</text>
</g>
<!-- Event Queue Worker&#45;&gt;Async Worker -->
<g id="edge8" class="edge">
<title>Event Queue Worker&#45;&gt;Async Worker</title>
<path fill="none" stroke="#000000" stroke-dasharray="5,2" d="M131.7912,-572.2333C136.7195,-548.7818 145.3766,-507.5856 151.1501,-480.112"/>
<polygon fill="#000000" stroke="#000000" points="154.5764,-480.826 153.2078,-470.32 147.726,-479.3864 154.5764,-480.826"/>
<text text-anchor="middle" x="194.1675" y="-524.0744" font-family="Times,serif" font-size="14.00" fill="#000000">create async task </text>
<text text-anchor="middle" x="194.1675" y="-510.0744" font-family="Times,serif" font-size="14.00" fill="#000000">for each event</text>
</g>
</g>
</svg>
